# xmcd CD database file
#
# Track frame offsets:
#	150
#	17161
#	34863
#	42042
#	60643
#	82735
#	92903
#	109553
#	117058
#	132873
#
# Disc length: 1872 seconds
#
# Revision: 0
# Processed by: cddbd v1.5.2PL0 Copyright (c) Steve Scherf et al.
# Submitted via: CDex 1.51
#
DISCID=71074e0a
DTITLE=Sounds of Africa - Kaloba
DYEAR=2007
DGENRE=Blues
TTITLE0=Hamba Kahle
TTITLE1=Money vs. Baboon
TTITLE2=Sekai
TTITLE3=ll about love
TTITLE4=Out There
TTITLE5=Nandi song
TTITLE6=Shekinah
TTITLE7=Kaanda
TTITLE8=Bailam
TTITLE9=Don´t Worry
EXTD=YEAR: 2007
EXTT0=
EXTT1=
EXTT2=
EXTT3=
EXTT4=
EXTT5=
EXTT6=
EXTT7=
EXTT8=
EXTT9=
PLAYORDER=
